<?xml version="1.0" encoding="UTF-8"?>
<svg version="1.1" xmlns="http://www.w3.org/2000/svg" width="64" height="64">
<path d="M0 0 C3.8949318 1.02265632 4.77512497 3.41486263 6.78125 6.73046875 C7.31878906 7.68824219 7.85632812 8.64601563 8.41015625 9.6328125 C9.38662109 11.33244141 9.38662109 11.33244141 10.3828125 13.06640625 C16.00963682 23.25458803 16.00963682 23.25458803 15.59765625 28.1328125 C14.05696564 32.67379536 12.4241713 36.2901358 8.34765625 39.0078125 C6.41015625 39.6328125 6.41015625 39.6328125 3.41015625 39.6328125 C3.27480469 40.28507812 3.13945313 40.93734375 3 41.609375 C1.61618187 47.2275109 0.15225928 51.01260186 -4.57421875 54.5078125 C-10.48024015 57.80419654 -16.1130703 58.17127976 -22.58203125 56.390625 C-26.7499145 54.81753288 -28.94715377 52.58576661 -31.40234375 48.9453125 C-33.46667125 43.18692527 -33.59726035 39.16051233 -31.30078125 33.3984375 C-27.28645297 25.14981774 -22.52919647 17.35616402 -17.58984375 9.6328125 C-15.21484375 9.9453125 -15.21484375 9.9453125 -12.58984375 10.6328125 C-11.59984375 12.1178125 -11.59984375 12.1178125 -10.58984375 13.6328125 C-9.81060547 12.22515625 -9.81060547 12.22515625 -9.015625 10.7890625 C-8.31217461 9.5697485 -7.60769349 8.35102875 -6.90234375 7.1328125 C-6.56267578 6.51277344 -6.22300781 5.89273437 -5.87304688 5.25390625 C-3.25126496 0.79442673 -3.25126496 0.79442673 0 0 Z M-8.58984375 16.6328125 C-7.58984375 18.6328125 -7.58984375 18.6328125 -7.58984375 18.6328125 Z M-7.58984375 18.6328125 C-6.58984375 20.6328125 -6.58984375 20.6328125 -6.58984375 20.6328125 Z M-4.58984375 23.6328125 C-3.58984375 25.6328125 -3.58984375 25.6328125 -3.58984375 25.6328125 Z M-0.58984375 30.6328125 C0.41015625 32.6328125 0.41015625 32.6328125 0.41015625 32.6328125 Z M0.41015625 32.6328125 C1.41015625 34.6328125 1.41015625 34.6328125 1.41015625 34.6328125 Z M1.41015625 34.6328125 C2.41015625 37.6328125 2.41015625 37.6328125 2.41015625 37.6328125 Z " fill="#ffffff" transform="translate(40.58984375,3.3671875)"/>
</svg>
